<svg xmlns="http://www.w3.org/2000/svg" viewBox="0 0 85 18" width="100%" height="100%">
  <path fill="currentColor" fill-rule="evenodd" d="M19.163 6.12c0 1.037-.187 1.898-.555 2.56-.375 0.674-.828 1.209-1.347 1.593a4.833 4.833 0 0 1-1.632.81c-.57.151-1.047.228-1.418.228H3.377v5.745H0V.955h14.211c.4 0 .896.076 1.477.228.565.15 1.115.419 1.631.799.51.375.951.901 1.31 1.563.354.657.534 1.523.534 2.576Zm-4.307 1.84c0.247-.17.463-.404.643-.693.19-.307.287-.692.287-1.146 0-.463-.086-.852-.255-1.155a2.018 2.018 0 0 0-.62-.7c-.236-.159-.48-.268-.729-.326a2.606 2.606 0 0 0-.573-.08H3.377v4.546h10.232c.125 0 .294-.03.53-.097.236-.065.477-.183.717-.348Z"/>
  
  <path fill="currentColor" fill-rule="evenodd" d="M40.642 13.777c-.335.174-.67.34-1.006.499l-.507.239 2.95 2.541H38.07l-1.657-1.347-.184.073c-.644.255-1.299.498-1.966.728-.659.229-1.328.432-1.988.606-.655.171-1.307.31-1.936.413-1.838.3-3.38.154-4.599-.196-.797-.227-1.47-.551-2.003-.963a4.008 4.008 0 0 1-1.191-1.456 4.377 4.377 0 0 1-.404-1.894c0-.592.121-1.115.36-1.553a4.175 4.175 0 0 1 1.014-1.218c.438-.364.96-.692 1.55-.975a15.86 15.86 0 0 1 1.902-.765l.547-.18-.406-.421a7.05 7.05 0 0 1-1.322-1.436 3.372 3.372 0 0 1-.428-1.658c0-.508.11-1.025.329-1.537.215-.504.578-.967 1.078-1.376.508-.417 1.19-.76 2.024-1.019C29.868.583 30.916.449 32.141.449c1.164 0 2.177.133 3.013.394.83.259 1.52.604 2.054 1.023.523.411.912.891 1.157 1.429.247.541.372 1.104.372 1.672 0 .556-.128 1.02-.39 1.418a3.974 3.974 0 0 1-1.097 1.092 7.92 7.92 0 0 1-1.652.84c-.644.244-1.323.463-2.017.65l-.656.178 3.743 3.24 1.591-.743c.403-.194.848-.41 1.335-.652.385-.19.758-.38 1.12-.571l1.47 2.553-.607.326c-.328.175-.638.333-.928.476l-.007.003Zm-10.784-10c.508-.317 1.301-.472 2.425-.472 1.055 0 1.831.143 2.372.438.608.33.917.742.917 1.222 0 .344-.143.656-.425.927-.236.227-.558.432-.957.608a9.716 9.716 0 0 1-1.331.462c-.496.137-1.03.278-1.604.422l-.168.042-1.477-1.242c-.397-.371-.592-.761-.592-1.171 0-.47.283-.886.84-1.235Zm1.047 10.746a23.419 23.419 0 0 0 2.466-.756l.595-.217-4.359-3.6-.17.049c-.516.146-.997.296-1.442.45a6.333 6.333 0 0 0-1.2.548c-.353.214-.64.467-.852.752a1.761 1.761 0 0 0-.35 1.075c0 .659.313 1.187.908 1.53.544.314 1.27.466 2.217.466.641 0 1.376-.1 2.187-.297Z"/>
  
  <path fill="currentColor" d="M62.23 12.564a6.54 6.54 0 0 1-1.516 1.068c-.578.3-1.243.54-1.977.714-.73.173-1.534.261-2.392.261-1.174 0-2.22-.151-3.105-.45-.894-.3-1.65-.711-2.243-1.219a5.116 5.116 0 0 1-1.83-3.932 5.12 5.12 0 0 1 1.829-3.958c.595-.508 1.351-.914 2.247-1.207.888-.29 1.931-.438 3.102-.438.807 0 1.575.08 2.283.236a9.405 9.405 0 0 1 1.923.637 6.15 6.15 0 0 1 1.496.97c.327.293.605.606.83.935l3.026-1.591a8.41 8.41 0 0 0-1.292-1.453A9.87 9.87 0 0 0 62.487 1.7a11.621 11.621 0 0 0-2.71-.957c-.999-.226-2.1-.34-3.27-.34-1.73 0-3.293.236-4.647.703-1.35.464-2.504 1.097-3.431 1.884a8.072 8.072 0 0 0-2.118 2.726 7.667 7.667 0 0 0-.728 3.29c0 1.157.245 2.264.728 3.29a8.088 8.088 0 0 0 2.118 2.727c.927.786 2.081 1.42 3.43 1.884 1.355.467 2.919.703 4.648.703 1.217 0 2.352-.122 3.372-.363a11.66 11.66 0 0 0 2.766-1.016 9.693 9.693 0 0 0 2.145-1.519 8.14 8.14 0 0 0 1.29-1.569l-3.04-1.589c-.207.355-.48.693-.81 1.011Z"/>
  
  <path fill="currentColor" fill-rule="evenodd" d="M83 2.185a5.822 5.822 0 0 1 1.48 1.967 5.71 5.71 0 0 1 .512 2.385 5.71 5.71 0 0 1-.511 2.384A5.826 5.826 0 0 1 83 10.887c-.64.562-1.432 1.013-2.352 1.342-.92.33-1.976.497-3.136.497-1.161 0-2.217-.167-3.137-.497-.92-.329-1.711-.78-2.352-1.342a5.822 5.822 0 0 1-1.48-1.967 5.708 5.708 0 0 1-.511-2.385c0-.838.172-1.64.511-2.385a5.818 5.818 0 0 1 1.48-1.968c.641-.56 1.433-1.012 2.352-1.342C75.296.513 76.352.347 77.513.347c1.16 0 2.216.167 3.136.496 0.92.33 1.712.782 2.352 1.343Zm-2.15 6.883c.365-.33.642-.719.823-1.152.18-.434.272-.898.272-1.38 0-.48-.092-.945-.272-1.38a3.23 3.23 0 0 0-.823-1.152c-.367-.332-.834-.599-1.387-.792-.555-.194-1.211-.293-1.95-.293-.74 0-1.396.099-1.95.293-.554.193-1.021.46-1.388.793-.366.332-.643.72-.823 1.152-.18.433-.272.897-.272 1.38 0 .482.092.946.272 1.379.18.433.457.82.823 1.153.367.332.834.599 1.387.792.557.194 1.213.292 1.95.292.738 0 1.394-.098 1.95-.292.554-.193 1.02-.46 1.388-.793Z"/>
  
  <path fill="currentColor" d="M73.732 17.066h7.56v-2.809h-7.56v2.81Z"/>
</svg>
